<svg width="20" height="20" viewBox="0 0 20 20" fill="none" xmlns="http://www.w3.org/2000/svg">
<path d="M10.5037 3.67175L5.92933 7.62829H1.6V12.7198H5.86373L10.5037 16.7334V3.67175Z" fill="#D5D6D6"/>
<path fill-rule="evenodd" clip-rule="evenodd" d="M10.781 3.06539C11.0182 3.17387 11.1704 3.41079 11.1704 3.67168V16.7333C11.1704 16.9942 11.0182 17.2311 10.7809 17.3396C10.5437 17.4481 10.2649 17.4082 10.0676 17.2375L5.61541 13.3863H1.6C1.23181 13.3863 0.933334 13.0879 0.933334 12.7197V7.62822C0.933334 7.26003 1.23181 6.96155 1.6 6.96155H5.68102L10.0676 3.16746C10.2649 2.99678 10.5437 2.9569 10.781 3.06539ZM9.83707 5.12974L6.36545 8.13244C6.24431 8.23722 6.0895 8.29488 5.92933 8.29488H2.26667V12.053H5.86373C6.02391 12.053 6.17873 12.1107 6.29987 12.2155L9.83707 15.2751V5.12974Z" fill="#D5D6D6"/>
<g clip-path="url(#clip0_1_409)">
<path fill-rule="evenodd" clip-rule="evenodd" d="M17.2979 8.40879C17.4931 8.21352 17.4931 7.89692 17.2979 7.70165C17.1026 7.50638 16.786 7.50638 16.5908 7.70165L15.3512 8.94134C15.1559 9.13662 14.8393 9.13662 14.644 8.94134L13.4068 7.70405C13.2116 7.50878 12.895 7.50878 12.6998 7.70405C12.5045 7.89932 12.5045 8.21591 12.6998 8.41118L13.937 9.64853C14.1323 9.84379 14.1323 10.1604 13.937 10.3556L12.7018 11.5909C12.5066 11.7862 12.5066 12.1028 12.7018 12.298C12.8971 12.4933 13.2137 12.4933 13.4089 12.298L14.644 11.0628C14.8393 10.8675 15.1559 10.8675 15.3512 11.0628L16.5887 12.3004C16.784 12.4957 17.1005 12.4957 17.2958 12.3004C17.491 12.1052 17.491 11.7886 17.2958 11.5933L16.0582 10.3556C15.863 10.1604 15.863 9.84379 16.0582 9.64853L17.2979 8.40879Z" fill="#D5D6D6"/>
</g>
<defs>
<clipPath id="clip0_1_409">
<rect width="6" height="6" fill="white" transform="translate(12 7)"/>
</clipPath>
</defs>
</svg>
