<svg width="20" height="20" viewBox="0 0 20 20" fill="none" xmlns="http://www.w3.org/2000/svg">
<path d="M10.5037 3.67175L5.92934 7.62829H1.60001V12.7198H5.86374L10.5037 16.7334V3.67175Z" fill="#D5D6D6"/>
<path fill-rule="evenodd" clip-rule="evenodd" d="M10.7809 3.06539C11.0182 3.17387 11.1704 3.41079 11.1704 3.67168V16.7333C11.1704 16.9942 11.0182 17.2311 10.7809 17.3396C10.5436 17.4481 10.2649 17.4082 10.0676 17.2375L5.61539 13.3863H1.59999C1.2318 13.3863 0.933319 13.0879 0.933319 12.7197V7.62822C0.933319 7.26003 1.2318 6.96155 1.59999 6.96155H5.68101L10.0676 3.16746C10.2649 2.99678 10.5437 2.9569 10.7809 3.06539ZM9.83705 5.12974L6.36544 8.13244C6.2443 8.23722 6.08949 8.29488 5.92932 8.29488H2.26665V12.053H5.86372C6.02389 12.053 6.17872 12.1107 6.29986 12.2155L9.83705 15.2751V5.12974Z" fill="#D5D6D6"/>
<path fill-rule="evenodd" clip-rule="evenodd" d="M14.2978 4.93C14.5942 4.71154 15.0115 4.7747 15.23 5.07108C16.328 6.56072 16.9204 8.36272 16.9204 10.2133C16.9204 12.0639 16.328 13.8659 15.23 15.3555C15.0115 15.6519 14.5942 15.7151 14.2978 15.4966C14.0014 15.2781 13.9382 14.8608 14.1567 14.5644C15.0858 13.3039 15.587 11.7792 15.587 10.2133C15.587 8.64742 15.0858 7.12266 14.1567 5.86219C13.9382 5.56582 14.0014 5.14846 14.2978 4.93ZM12.4342 6.80263C12.742 6.6006 13.1553 6.68635 13.3574 6.99416C13.985 7.95046 14.3194 9.06941 14.3194 10.2133C14.3194 11.3572 13.985 12.4761 13.3574 13.4324C13.1553 13.7403 12.742 13.826 12.4342 13.624C12.1264 13.4219 12.0406 13.0086 12.2427 12.7008C12.7277 11.9619 12.9861 11.0972 12.9861 10.2133C12.9861 9.32938 12.7277 8.46475 12.2427 7.72578C12.0406 7.41797 12.1264 7.00466 12.4342 6.80263Z" fill="#D5D6D6"/>
</svg>
