<svg width="20" height="20" viewBox="0 0 20 20" fill="none" xmlns="http://www.w3.org/2000/svg">
<path d="M10.5037 3.67175L5.92934 7.62829H1.60001V12.7198H5.86374L10.5037 16.7334V3.67175Z" fill="#D5D6D6"/>
<path fill-rule="evenodd" clip-rule="evenodd" d="M10.781 3.06539C11.0182 3.17387 11.1704 3.41079 11.1704 3.67168V16.7333C11.1704 16.9942 11.0182 17.2311 10.7809 17.3396C10.5437 17.4481 10.2649 17.4082 10.0676 17.2375L5.61541 13.3863H1.6C1.23181 13.3863 0.933334 13.0879 0.933334 12.7197V7.62822C0.933334 7.26003 1.23181 6.96155 1.6 6.96155H5.68102L10.0676 3.16746C10.2649 2.99678 10.5437 2.9569 10.781 3.06539ZM9.83707 5.12974L6.36545 8.13244C6.24431 8.23722 6.0895 8.29488 5.92933 8.29488H2.26667V12.053H5.86373C6.02391 12.053 6.17873 12.1107 6.29987 12.2155L9.83707 15.2751V5.12974Z" fill="#D5D6D6"/>
<path fill-rule="evenodd" clip-rule="evenodd" d="M12.4342 6.80264C12.742 6.60061 13.1553 6.68636 13.3573 6.99417C13.985 7.95047 14.3194 9.06942 14.3194 10.2133C14.3194 11.3572 13.985 12.4762 13.3573 13.4325C13.1553 13.7403 12.742 13.826 12.4342 13.624C12.1264 13.4219 12.0406 13.0086 12.2427 12.7008C12.7277 11.9619 12.9861 11.0972 12.9861 10.2133C12.9861 9.32939 12.7277 8.46475 12.2427 7.72579C12.0406 7.41798 12.1264 7.00467 12.4342 6.80264Z" fill="#D5D6D6"/>
</svg>
