<svg width="20" height="20" viewBox="0 0 20 20" fill="none" xmlns="http://www.w3.org/2000/svg">
<path d="M10.5038 3.67188L5.92943 7.62841H1.6001V12.7199H5.86383L10.5038 16.7335V3.67188Z" fill="#444444"/>
<path fill-rule="evenodd" clip-rule="evenodd" d="M10.781 3.06526C11.0182 3.17375 11.1704 3.41067 11.1704 3.67156V16.7332C11.1704 16.9941 11.0182 17.231 10.781 17.3395C10.5437 17.4479 10.2649 17.4081 10.0676 17.2374L5.61542 13.3862H1.60002C1.23183 13.3862 0.93335 13.0877 0.93335 12.7196V7.62809C0.93335 7.2599 1.23183 6.96143 1.60002 6.96143H5.68104L10.0676 3.16733C10.265 2.99666 10.5437 2.95678 10.781 3.06526ZM9.83708 5.12962L6.36547 8.13232C6.24433 8.2371 6.08952 8.29476 5.92935 8.29476H2.26668V12.0529H5.86375C6.02392 12.0529 6.17875 12.1106 6.29989 12.2154L9.83708 15.275V5.12962Z" fill="#444444"/>
<path fill-rule="evenodd" clip-rule="evenodd" d="M14.2978 4.92988C14.5942 4.71142 15.0116 4.77458 15.23 5.07096C16.328 6.5606 16.9204 8.3626 16.9204 10.2132C16.9204 12.0638 16.328 13.8658 15.23 15.3554C15.0116 15.6518 14.5942 15.7149 14.2978 15.4965C14.0014 15.278 13.9383 14.8607 14.1567 14.5643C15.0858 13.3038 15.5871 11.7791 15.5871 10.2132C15.5871 8.6473 15.0858 7.12254 14.1567 5.86207C13.9383 5.56569 14.0014 5.14834 14.2978 4.92988ZM12.4342 6.80251C12.742 6.60048 13.1553 6.68623 13.3574 6.99404C13.9851 7.95034 14.3195 9.06928 14.3195 10.2132C14.3195 11.3571 13.9851 12.476 13.3574 13.4323C13.1553 13.7401 12.742 13.8259 12.4342 13.6239C12.1264 13.4218 12.0407 13.0085 12.2427 12.7007C12.7277 11.9617 12.9861 11.0971 12.9861 10.2132C12.9861 9.32926 12.7277 8.46462 12.2427 7.72566C12.0407 7.41785 12.1264 7.00454 12.4342 6.80251Z" fill="#444444"/>
</svg>
