<svg width="20" height="20" viewBox="0 0 20 20" fill="none" xmlns="http://www.w3.org/2000/svg">
<path d="M10.5037 3.67175L5.92934 7.62829H1.60001V12.7198H5.86374L10.5037 16.7334V3.67175Z" fill="#D5D6D6"/>
<path fill-rule="evenodd" clip-rule="evenodd" d="M10.7809 3.06539C11.0182 3.17387 11.1704 3.41079 11.1704 3.67168V16.7333C11.1704 16.9942 11.0182 17.2311 10.7809 17.3396C10.5436 17.4481 10.2649 17.4082 10.0676 17.2375L5.61539 13.3863H1.59999C1.2318 13.3863 0.933319 13.0879 0.933319 12.7197V7.62822C0.933319 7.26003 1.2318 6.96155 1.59999 6.96155H5.68101L10.0676 3.16746C10.2649 2.99678 10.5437 2.9569 10.7809 3.06539ZM9.83705 5.12974L6.36544 8.13244C6.2443 8.23722 6.08949 8.29488 5.92932 8.29488H2.26665V12.053H5.86372C6.02389 12.053 6.17872 12.1107 6.29986 12.2155L9.83705 15.2751V5.12974Z" fill="#D5D6D6"/>
<path fill-rule="evenodd" clip-rule="evenodd" d="M16.0092 3.21361C16.2962 2.98302 16.7158 3.02878 16.9464 3.31581C18.5175 5.27144 19.3738 7.70481 19.3738 10.2133C19.3738 12.7219 18.5175 15.1552 16.9464 17.1109C16.7158 17.3979 16.2962 17.4437 16.0092 17.2131C15.7221 16.9825 15.6764 16.5629 15.907 16.2758C17.2878 14.5569 18.0405 12.4182 18.0405 10.2133C18.0405 8.00851 17.2878 5.86974 15.907 4.15087C15.6764 3.86383 15.7221 3.44421 16.0092 3.21361ZM14.2978 4.93004C14.5942 4.71158 15.0115 4.77474 15.23 5.07112C16.328 6.56076 16.9204 8.36275 16.9204 10.2133C16.9204 12.0639 16.328 13.8659 15.23 15.3556C15.0115 15.6519 14.5942 15.7151 14.2978 15.4966C14.0014 15.2782 13.9382 14.8608 14.1567 14.5644C15.0858 13.304 15.587 11.7792 15.587 10.2133C15.587 8.64746 15.0858 7.12269 14.1567 5.86223C13.9382 5.56585 14.0014 5.1485 14.2978 4.93004ZM12.4342 6.80267C12.742 6.60064 13.1553 6.68639 13.3574 6.99419C13.985 7.9505 14.3194 9.06944 14.3194 10.2133C14.3194 11.3572 13.985 12.4762 13.3574 13.4325C13.1553 13.7403 12.742 13.826 12.4342 13.624C12.1264 13.422 12.0406 13.0087 12.2427 12.7009C12.7277 11.9619 12.9861 11.0973 12.9861 10.2133C12.9861 9.32942 12.7277 8.46478 12.2427 7.72582C12.0406 7.41801 12.1264 7.0047 12.4342 6.80267Z" fill="#D5D6D6"/>
</svg>
