<svg width="20" height="20" viewBox="0 0 20 20" fill="none" xmlns="http://www.w3.org/2000/svg">
<path d="M10.5038 3.67188L5.92943 7.62841H1.6001V12.7199H5.86383L10.5038 16.7335V3.67188Z" fill="#444444"/>
<path fill-rule="evenodd" clip-rule="evenodd" d="M10.781 3.06526C11.0182 3.17375 11.1704 3.41067 11.1704 3.67156V16.7332C11.1704 16.9941 11.0182 17.231 10.781 17.3395C10.5437 17.4479 10.2649 17.4081 10.0676 17.2374L5.61542 13.3862H1.60002C1.23183 13.3862 0.93335 13.0877 0.93335 12.7196V7.62809C0.93335 7.2599 1.23183 6.96143 1.60002 6.96143H5.68104L10.0676 3.16733C10.265 2.99666 10.5437 2.95678 10.781 3.06526ZM9.83708 5.12962L6.36547 8.13232C6.24433 8.2371 6.08952 8.29476 5.92935 8.29476H2.26668V12.0529H5.86375C6.02392 12.0529 6.17875 12.1106 6.29989 12.2154L9.83708 15.275V5.12962Z" fill="#444444"/>
<path fill-rule="evenodd" clip-rule="evenodd" d="M16.0092 3.21337C16.2962 2.98278 16.7158 3.02853 16.9464 3.31557C18.5175 5.2712 19.3739 7.70456 19.3739 10.2131C19.3739 12.7216 18.5175 15.155 16.9464 17.1106C16.7158 17.3977 16.2962 17.4434 16.0092 17.2128C15.7221 16.9822 15.6764 16.5626 15.907 16.2756C17.2878 14.5567 18.0405 12.4179 18.0405 10.2131C18.0405 8.00826 17.2878 5.86949 15.907 4.15062C15.6764 3.86358 15.7221 3.44396 16.0092 3.21337ZM14.2978 4.92979C14.5942 4.71133 15.0116 4.7745 15.23 5.07087C16.328 6.56051 16.9204 8.36251 16.9204 10.2131C16.9204 12.0637 16.328 13.8657 15.23 15.3553C15.0116 15.6517 14.5942 15.7149 14.2978 15.4964C14.0014 15.2779 13.9383 14.8606 14.1567 14.5642C15.0858 13.3037 15.5871 11.779 15.5871 10.2131C15.5871 8.64722 15.0858 7.12245 14.1567 5.86198C13.9383 5.56561 14.0014 5.14825 14.2978 4.92979ZM12.4342 6.80242C12.742 6.60039 13.1553 6.68614 13.3574 6.99395C13.9851 7.95026 14.3195 9.0692 14.3195 10.2131C14.3195 11.357 13.9851 12.4759 13.3574 13.4322C13.1553 13.74 12.742 13.8258 12.4342 13.6238C12.1264 13.4217 12.0407 13.0084 12.2427 12.7006C12.7277 11.9617 12.9861 11.097 12.9861 10.2131C12.9861 9.32918 12.7277 8.46454 12.2427 7.72557C12.0407 7.41777 12.1264 7.00446 12.4342 6.80242Z" fill="#444444"/>
</svg>
