<svg width="20" height="20" viewBox="0 0 20 20" fill="none" xmlns="http://www.w3.org/2000/svg">
<path d="M10.5038 3.67188L5.92943 7.62841H1.6001V12.7199H5.86383L10.5038 16.7335V3.67188Z" fill="#444444"/>
<path fill-rule="evenodd" clip-rule="evenodd" d="M10.781 3.06526C11.0182 3.17375 11.1704 3.41067 11.1704 3.67156V16.7332C11.1704 16.9941 11.0182 17.231 10.781 17.3395C10.5437 17.4479 10.2649 17.4081 10.0676 17.2374L5.61542 13.3862H1.60002C1.23183 13.3862 0.93335 13.0877 0.93335 12.7196V7.62809C0.93335 7.2599 1.23183 6.96143 1.60002 6.96143H5.68104L10.0676 3.16733C10.265 2.99666 10.5437 2.95678 10.781 3.06526ZM9.83708 5.12962L6.36547 8.13232C6.24433 8.2371 6.08952 8.29476 5.92935 8.29476H2.26668V12.0529H5.86375C6.02392 12.0529 6.17875 12.1106 6.29989 12.2154L9.83708 15.275V5.12962Z" fill="#444444"/>
<g clip-path="url(#clip0_357_4704)">
<path fill-rule="evenodd" clip-rule="evenodd" d="M17.2978 8.40879C17.4931 8.21352 17.4931 7.89692 17.2978 7.70165C17.1026 7.50638 16.786 7.50638 16.5908 7.70165L15.3512 8.94134C15.1559 9.13662 14.8393 9.13662 14.644 8.94134L13.4068 7.70405C13.2116 7.50878 12.895 7.50878 12.6998 7.70404C12.5045 7.89932 12.5045 8.21591 12.6998 8.41118L13.937 9.64853C14.1323 9.84379 14.1323 10.1604 13.937 10.3556L12.7018 11.5909C12.5066 11.7862 12.5066 12.1028 12.7018 12.298C12.8971 12.4933 13.2137 12.4933 13.4089 12.298L14.644 11.0628C14.8393 10.8675 15.1559 10.8675 15.3512 11.0628L16.5887 12.3004C16.7839 12.4957 17.1005 12.4957 17.2958 12.3004C17.491 12.1052 17.491 11.7886 17.2958 11.5933L16.0582 10.3556C15.863 10.1604 15.863 9.84379 16.0582 9.64853L17.2978 8.40879Z" fill="#444444"/>
</g>
<defs>
<clipPath id="clip0_357_4704">
<rect width="6" height="6" fill="white" transform="translate(12 7)"/>
</clipPath>
</defs>
</svg>
