<svg width="52" height="52" viewBox="0 0 52 52" fill="none" xmlns="http://www.w3.org/2000/svg">
<path fill-rule="evenodd" clip-rule="evenodd" d="M29.4332 10.0987C29.7797 10.2652 30 10.6156 30 11V41C30 41.3844 29.7797 41.7348 29.4332 41.9013C29.0867 42.0678 28.6755 42.021 28.3753 41.7809L18.6492 34H9C8.44772 34 8 33.5523 8 33V19C8 18.4477 8.44772 18 9 18H18.6492L28.3753 10.2191C28.6755 9.979 29.0867 9.93219 29.4332 10.0987Z" fill="#444444"/>
<path fill-rule="evenodd" clip-rule="evenodd" d="M34.4746 18.1493C34.9444 17.859 35.5606 18.0046 35.8509 18.4744C37.2028 20.6629 38.0001 23.2075 38.0001 26C38.0001 28.7555 37.1659 31.3584 35.8551 33.5188C35.5686 33.9909 34.9536 34.1414 34.4814 33.8549C34.0092 33.5685 33.8587 32.9534 34.1452 32.4813C35.2862 30.6008 36.0001 28.353 36.0001 26C36.0001 23.6005 35.3179 21.4171 34.1494 19.5256C33.8591 19.0557 34.0047 18.4395 34.4746 18.1493Z" fill="#444444"/>
<path fill-rule="evenodd" clip-rule="evenodd" d="M36.3275 10.2601C36.7361 9.88856 37.3686 9.91868 37.7401 10.3273C41.6405 14.6178 44.0001 20.0353 44.0001 26C44.0001 31.9278 41.5964 37.3952 37.7429 41.6696C37.373 42.0798 36.7407 42.1125 36.3305 41.7427C35.9203 41.3729 35.8876 40.7406 36.2574 40.3304C39.823 36.3754 42.0001 31.372 42.0001 26C42.0001 20.5859 39.8635 15.6363 36.2602 11.6727C35.8887 11.264 35.9188 10.6316 36.3275 10.2601Z" fill="#444444"/>
</svg>
